<svg version="1.2" xmlns="http://www.w3.org/2000/svg" viewBox="0 0 171 24" width="171" height="24"><style>.a{fill:#fff}</style><path class="a" d="m26.2 4.9v1.9h-9q-1.1 0-1.9 1-0.8 0.9-0.8 2.1v2.8l11.6 0.1v1.9l-11.6-0.1v4.4h-1.9v-9.3q0-2 1.3-3.4 1.3-1.4 3.3-1.4zm14.3 0v1.9h-9q-1.1 0-1.9 1-0.8 0.9-0.8 2.1v9.1h-1.9v-9.3q0-2 1.3-3.4 1.3-1.4 3.3-1.4zm15.5 4.8l-0.1 9.3h-1.9v-7.9h-9.3q-1.3 0-2 0.9-0.7 0.8-0.7 2.2 0 1.2 0.8 2 0.8 0.9 1.9 0.9h6.6v1.9h-6.6q-2.2 0-3.5-1.5-1.2-1.4-1.2-3.6 0-2.1 1.4-3.4 1.4-1.4 3.3-1.4h9.2q-0.2-1-0.9-1.6-0.7-0.7-1.7-0.7h-9v-1.9h9q2 0 3.4 1.4 1.3 1.4 1.3 3.4zm16.3 7.4v1.9h-9.9q-2.1 0-3.4-1.3-1.2-1.4-1.2-3.5v-4.6q0-2 1.2-3.3 1.3-1.3 3.4-1.3h9.9v1.9h-9.9q-1.2 0-1.9 0.9-0.8 0.9-0.8 2.1v4.2q0 1.2 0.8 2.1 0.7 0.9 1.9 0.9zm6.5-5.1l11.6 5.5v1.5h-1.4l-12-5.9v5.9h-1.9v-13.9h1.9v5.7l12-5.7h1.4v1.5zm30.2-6.9v1.9h-7.2v12h-1.9v-12h-7.1v-1.9zm16.7 4.5v4.6q0 2-1.2 3.4-1.3 1.4-3.3 1.4h-6.6q-2 0-3.3-1.4-1.3-1.4-1.3-3.4v-4.6q0-2 1.2-3.3 1.3-1.3 3.4-1.3h6.5q2 0 3.3 1.3 1.3 1.3 1.3 3.3zm-1.9 4.5v-4.2q0-1.2-0.8-2.1-0.7-0.9-1.9-0.9h-6.5q-1.2 0-1.9 0.9-0.8 0.9-0.8 2.1v4.2q0 1.2 0.8 2.1 0.7 0.9 1.9 0.9h6.5q1.2 0 1.9-0.9 0.8-0.9 0.8-2.1zm17.8-9.2v1.9h-9q-1.2 0-2 0.9-0.7 1-0.7 2.1v9.2h-1.9v-9.3q0-2 1.3-3.4 1.3-1.4 3.3-1.4zm9.3 7.8v6.3h-2v-6.6l-6.6-5.8 0.1-1.5h1.3l6.3 5.6 6.3-5.6h1.4v1.5z"/></svg>